<mxfile host="app.diagrams.net" modified="2020-12-31T07:59:52.055Z" agent="5.0 (Macintosh; Intel Mac OS X 10_15_6) AppleWebKit/537.36 (KHTML, like Gecko) Chrome/87.0.4280.88 Safari/537.36" etag="iDPBIR4snvQ-NHQYuaCa" version="14.1.2" type="github">
  <diagram id="jQAaLUI2CSUw4TK9SEJr" name="Page-1">
    <mxGraphModel dx="786" dy="370" grid="1" gridSize="10" guides="1" tooltips="1" connect="1" arrows="1" fold="1" page="1" pageScale="1" pageWidth="827" pageHeight="1169" background="#114B5F" math="0" shadow="0">
      <root>
        <mxCell id="0" />
        <mxCell id="1" parent="0" />
        <mxCell id="iPEuSm-nHZqJ6S3BHor2-30" value="" style="shape=table;html=1;whiteSpace=wrap;startSize=0;container=1;collapsible=0;childLayout=tableLayout;fontFamily=Architects Daughter;fontSource=https%3A%2F%2Ffonts.googleapis.com%2Fcss%3Ffamily%3DArchitects%2BDaughter;comic=1;fillColor=#F45B69;strokeColor=#028090;fontColor=#E4FDE1;" vertex="1" parent="1">
          <mxGeometry x="50" y="80" width="140" height="264" as="geometry" />
        </mxCell>
        <mxCell id="iPEuSm-nHZqJ6S3BHor2-31" value="" style="shape=partialRectangle;html=1;whiteSpace=wrap;collapsible=0;dropTarget=0;pointerEvents=0;fillColor=none;top=0;left=0;bottom=0;right=0;points=[[0,0.5],[1,0.5]];portConstraint=eastwest;strokeColor=#028090;fontColor=#E4FDE1;" vertex="1" parent="iPEuSm-nHZqJ6S3BHor2-30">
          <mxGeometry width="140" height="44" as="geometry" />
        </mxCell>
        <mxCell id="iPEuSm-nHZqJ6S3BHor2-32" value="&lt;font face=&quot;Architects Daughter&quot; data-font-src=&quot;https://fonts.googleapis.com/css?family=Architects+Daughter&quot;&gt;secion name&lt;/font&gt;" style="shape=partialRectangle;html=1;whiteSpace=wrap;connectable=0;overflow=hidden;fillColor=none;top=0;left=0;bottom=0;right=0;strokeColor=#028090;fontColor=#E4FDE1;" vertex="1" parent="iPEuSm-nHZqJ6S3BHor2-31">
          <mxGeometry width="140" height="44" as="geometry" />
        </mxCell>
        <mxCell id="iPEuSm-nHZqJ6S3BHor2-33" value="" style="shape=partialRectangle;html=1;whiteSpace=wrap;collapsible=0;dropTarget=0;pointerEvents=0;fillColor=none;top=0;left=0;bottom=0;right=0;points=[[0,0.5],[1,0.5]];portConstraint=eastwest;strokeColor=#028090;fontColor=#E4FDE1;" vertex="1" parent="iPEuSm-nHZqJ6S3BHor2-30">
          <mxGeometry y="44" width="140" height="44" as="geometry" />
        </mxCell>
        <mxCell id="iPEuSm-nHZqJ6S3BHor2-34" value="&lt;font face=&quot;Architects Daughter&quot;&gt;segment name&lt;/font&gt;" style="shape=partialRectangle;html=1;whiteSpace=wrap;connectable=0;overflow=hidden;fillColor=none;top=0;left=0;bottom=0;right=0;strokeColor=#028090;fontColor=#E4FDE1;" vertex="1" parent="iPEuSm-nHZqJ6S3BHor2-33">
          <mxGeometry width="140" height="44" as="geometry" />
        </mxCell>
        <mxCell id="iPEuSm-nHZqJ6S3BHor2-35" value="" style="shape=partialRectangle;html=1;whiteSpace=wrap;collapsible=0;dropTarget=0;pointerEvents=0;fillColor=none;top=0;left=0;bottom=0;right=0;points=[[0,0.5],[1,0.5]];portConstraint=eastwest;strokeColor=#028090;fontColor=#E4FDE1;" vertex="1" parent="iPEuSm-nHZqJ6S3BHor2-30">
          <mxGeometry y="88" width="140" height="44" as="geometry" />
        </mxCell>
        <mxCell id="iPEuSm-nHZqJ6S3BHor2-36" value="&lt;font face=&quot;Architects Daughter&quot; data-font-src=&quot;https://fonts.googleapis.com/css?family=Architects+Daughter&quot;&gt;address&lt;/font&gt;" style="shape=partialRectangle;html=1;whiteSpace=wrap;connectable=0;overflow=hidden;fillColor=none;top=0;left=0;bottom=0;right=0;strokeColor=#028090;fontColor=#E4FDE1;" vertex="1" parent="iPEuSm-nHZqJ6S3BHor2-35">
          <mxGeometry width="140" height="44" as="geometry" />
        </mxCell>
        <mxCell id="iPEuSm-nHZqJ6S3BHor2-37" value="" style="shape=partialRectangle;html=1;whiteSpace=wrap;collapsible=0;dropTarget=0;pointerEvents=0;fillColor=none;top=0;left=0;bottom=0;right=0;points=[[0,0.5],[1,0.5]];portConstraint=eastwest;strokeColor=#028090;fontColor=#E4FDE1;" vertex="1" parent="iPEuSm-nHZqJ6S3BHor2-30">
          <mxGeometry y="132" width="140" height="44" as="geometry" />
        </mxCell>
        <mxCell id="iPEuSm-nHZqJ6S3BHor2-38" value="size" style="shape=partialRectangle;html=1;whiteSpace=wrap;connectable=0;overflow=hidden;fillColor=none;top=0;left=0;bottom=0;right=0;fontFamily=Architects Daughter;fontSource=https%3A%2F%2Ffonts.googleapis.com%2Fcss%3Ffamily%3DArchitects%2BDaughter;strokeColor=#028090;fontColor=#E4FDE1;" vertex="1" parent="iPEuSm-nHZqJ6S3BHor2-37">
          <mxGeometry width="140" height="44" as="geometry" />
        </mxCell>
        <mxCell id="iPEuSm-nHZqJ6S3BHor2-39" value="" style="shape=partialRectangle;html=1;whiteSpace=wrap;collapsible=0;dropTarget=0;pointerEvents=0;fillColor=none;top=0;left=0;bottom=0;right=0;points=[[0,0.5],[1,0.5]];portConstraint=eastwest;strokeColor=#028090;fontColor=#E4FDE1;" vertex="1" parent="iPEuSm-nHZqJ6S3BHor2-30">
          <mxGeometry y="176" width="140" height="44" as="geometry" />
        </mxCell>
        <mxCell id="iPEuSm-nHZqJ6S3BHor2-40" value="indirect sym index" style="shape=partialRectangle;html=1;whiteSpace=wrap;connectable=0;overflow=hidden;fillColor=none;top=0;left=0;bottom=0;right=0;fontFamily=Architects Daughter;fontSource=https%3A%2F%2Ffonts.googleapis.com%2Fcss%3Ffamily%3DArchitects%2BDaughter;strokeColor=#028090;fontColor=#E4FDE1;" vertex="1" parent="iPEuSm-nHZqJ6S3BHor2-39">
          <mxGeometry width="140" height="44" as="geometry" />
        </mxCell>
        <mxCell id="iPEuSm-nHZqJ6S3BHor2-49" style="shape=partialRectangle;html=1;whiteSpace=wrap;collapsible=0;dropTarget=0;pointerEvents=0;fillColor=none;top=0;left=0;bottom=0;right=0;points=[[0,0.5],[1,0.5]];portConstraint=eastwest;strokeColor=#028090;fontColor=#E4FDE1;" vertex="1" parent="iPEuSm-nHZqJ6S3BHor2-30">
          <mxGeometry y="220" width="140" height="44" as="geometry" />
        </mxCell>
        <mxCell id="iPEuSm-nHZqJ6S3BHor2-50" value="..." style="shape=partialRectangle;html=1;whiteSpace=wrap;connectable=0;overflow=hidden;fillColor=none;top=0;left=0;bottom=0;right=0;strokeColor=#028090;fontColor=#E4FDE1;" vertex="1" parent="iPEuSm-nHZqJ6S3BHor2-49">
          <mxGeometry width="140" height="44" as="geometry" />
        </mxCell>
        <mxCell id="iPEuSm-nHZqJ6S3BHor2-41" value="&lt;font face=&quot;Architects Daughter&quot; data-font-src=&quot;https://fonts.googleapis.com/css?family=Architects+Daughter&quot;&gt;Section Header&lt;/font&gt;" style="text;html=1;align=center;verticalAlign=middle;resizable=0;points=[];autosize=1;fontColor=#E4FDE1;" vertex="1" parent="1">
          <mxGeometry x="70" y="40" width="100" height="20" as="geometry" />
        </mxCell>
        <mxCell id="iPEuSm-nHZqJ6S3BHor2-51" value="" style="shape=table;html=1;whiteSpace=wrap;startSize=0;container=1;collapsible=0;childLayout=tableLayout;strokeColor=#028090;fontColor=#E4FDE1;comic=1;fillColor=#28ABB9;" vertex="1" parent="1">
          <mxGeometry x="300" y="90" width="60" height="240" as="geometry" />
        </mxCell>
        <mxCell id="iPEuSm-nHZqJ6S3BHor2-52" value="" style="shape=partialRectangle;html=1;whiteSpace=wrap;collapsible=0;dropTarget=0;pointerEvents=0;fillColor=none;top=0;left=0;bottom=0;right=0;points=[[0,0.5],[1,0.5]];portConstraint=eastwest;strokeColor=#028090;fontColor=#E4FDE1;" vertex="1" parent="iPEuSm-nHZqJ6S3BHor2-51">
          <mxGeometry width="60" height="40" as="geometry" />
        </mxCell>
        <mxCell id="iPEuSm-nHZqJ6S3BHor2-53" value="" style="shape=partialRectangle;html=1;whiteSpace=wrap;connectable=0;overflow=hidden;fillColor=none;top=0;left=0;bottom=0;right=0;strokeColor=#028090;fontColor=#E4FDE1;" vertex="1" parent="iPEuSm-nHZqJ6S3BHor2-52">
          <mxGeometry width="60" height="40" as="geometry" />
        </mxCell>
        <mxCell id="iPEuSm-nHZqJ6S3BHor2-54" value="" style="shape=partialRectangle;html=1;whiteSpace=wrap;collapsible=0;dropTarget=0;pointerEvents=0;fillColor=none;top=0;left=0;bottom=0;right=0;points=[[0,0.5],[1,0.5]];portConstraint=eastwest;strokeColor=#028090;fontColor=#E4FDE1;" vertex="1" parent="iPEuSm-nHZqJ6S3BHor2-51">
          <mxGeometry y="40" width="60" height="40" as="geometry" />
        </mxCell>
        <mxCell id="iPEuSm-nHZqJ6S3BHor2-55" value="" style="shape=partialRectangle;html=1;whiteSpace=wrap;connectable=0;overflow=hidden;fillColor=none;top=0;left=0;bottom=0;right=0;strokeColor=#028090;fontColor=#E4FDE1;" vertex="1" parent="iPEuSm-nHZqJ6S3BHor2-54">
          <mxGeometry width="60" height="40" as="geometry" />
        </mxCell>
        <mxCell id="iPEuSm-nHZqJ6S3BHor2-56" value="" style="shape=partialRectangle;html=1;whiteSpace=wrap;collapsible=0;dropTarget=0;pointerEvents=0;fillColor=none;top=0;left=0;bottom=0;right=0;points=[[0,0.5],[1,0.5]];portConstraint=eastwest;strokeColor=#028090;fontColor=#E4FDE1;" vertex="1" parent="iPEuSm-nHZqJ6S3BHor2-51">
          <mxGeometry y="80" width="60" height="40" as="geometry" />
        </mxCell>
        <mxCell id="iPEuSm-nHZqJ6S3BHor2-57" value="" style="shape=partialRectangle;html=1;whiteSpace=wrap;connectable=0;overflow=hidden;fillColor=none;top=0;left=0;bottom=0;right=0;strokeColor=#028090;fontColor=#E4FDE1;" vertex="1" parent="iPEuSm-nHZqJ6S3BHor2-56">
          <mxGeometry width="60" height="40" as="geometry" />
        </mxCell>
        <mxCell id="iPEuSm-nHZqJ6S3BHor2-58" value="" style="shape=partialRectangle;html=1;whiteSpace=wrap;collapsible=0;dropTarget=0;pointerEvents=0;fillColor=none;top=0;left=0;bottom=0;right=0;points=[[0,0.5],[1,0.5]];portConstraint=eastwest;strokeColor=#028090;fontColor=#E4FDE1;" vertex="1" parent="iPEuSm-nHZqJ6S3BHor2-51">
          <mxGeometry y="120" width="60" height="40" as="geometry" />
        </mxCell>
        <mxCell id="iPEuSm-nHZqJ6S3BHor2-59" value="" style="shape=partialRectangle;html=1;whiteSpace=wrap;connectable=0;overflow=hidden;fillColor=none;top=0;left=0;bottom=0;right=0;strokeColor=#028090;fontColor=#E4FDE1;" vertex="1" parent="iPEuSm-nHZqJ6S3BHor2-58">
          <mxGeometry width="60" height="40" as="geometry" />
        </mxCell>
        <mxCell id="iPEuSm-nHZqJ6S3BHor2-60" value="" style="shape=partialRectangle;html=1;whiteSpace=wrap;collapsible=0;dropTarget=0;pointerEvents=0;fillColor=none;top=0;left=0;bottom=0;right=0;points=[[0,0.5],[1,0.5]];portConstraint=eastwest;strokeColor=#028090;fontColor=#E4FDE1;" vertex="1" parent="iPEuSm-nHZqJ6S3BHor2-51">
          <mxGeometry y="160" width="60" height="40" as="geometry" />
        </mxCell>
        <mxCell id="iPEuSm-nHZqJ6S3BHor2-61" value="" style="shape=partialRectangle;html=1;whiteSpace=wrap;connectable=0;overflow=hidden;fillColor=none;top=0;left=0;bottom=0;right=0;strokeColor=#028090;fontColor=#E4FDE1;" vertex="1" parent="iPEuSm-nHZqJ6S3BHor2-60">
          <mxGeometry width="60" height="40" as="geometry" />
        </mxCell>
        <mxCell id="iPEuSm-nHZqJ6S3BHor2-62" value="" style="shape=partialRectangle;html=1;whiteSpace=wrap;collapsible=0;dropTarget=0;pointerEvents=0;fillColor=none;top=0;left=0;bottom=0;right=0;points=[[0,0.5],[1,0.5]];portConstraint=eastwest;strokeColor=#028090;fontColor=#E4FDE1;" vertex="1" parent="iPEuSm-nHZqJ6S3BHor2-51">
          <mxGeometry y="200" width="60" height="40" as="geometry" />
        </mxCell>
        <mxCell id="iPEuSm-nHZqJ6S3BHor2-63" value="" style="shape=partialRectangle;html=1;whiteSpace=wrap;connectable=0;overflow=hidden;fillColor=none;top=0;left=0;bottom=0;right=0;strokeColor=#028090;fontColor=#E4FDE1;" vertex="1" parent="iPEuSm-nHZqJ6S3BHor2-62">
          <mxGeometry width="60" height="40" as="geometry" />
        </mxCell>
      </root>
    </mxGraphModel>
  </diagram>
</mxfile>
